<?xml version="1.0" encoding="UTF-8" standalone="no"?>
<svg
   width="27"
   height="26"
   viewBox="0 0 27 26"
   fill="none"
   version="1.1"
   id="svg1"
   sodipodi:docname="icon_arrow.svg"
   inkscape:version="1.3.2 (091e20e, 2023-11-25, custom)"
   xmlns:inkscape="http://www.inkscape.org/namespaces/inkscape"
   xmlns:sodipodi="http://sodipodi.sourceforge.net/DTD/sodipodi-0.dtd"
   xmlns="http://www.w3.org/2000/svg"
   xmlns:svg="http://www.w3.org/2000/svg">
  <defs
     id="defs1" />
  <sodipodi:namedview
     id="namedview1"
     pagecolor="#ffffff"
     bordercolor="#000000"
     borderopacity="0.25"
     inkscape:showpageshadow="2"
     inkscape:pageopacity="0.0"
     inkscape:pagecheckerboard="0"
     inkscape:deskcolor="#d1d1d1"
     inkscape:zoom="45.115385"
     inkscape:cx="13.509804"
     inkscape:cy="13"
     inkscape:window-width="2560"
     inkscape:window-height="1369"
     inkscape:window-x="-8"
     inkscape:window-y="61"
     inkscape:window-maximized="1"
     inkscape:current-layer="svg1" />
  <path
     d="M2 11.25C1.0335 11.25 0.25 12.0335 0.25 13C0.25 13.9665 1.0335 14.75 2 14.75L2 11.25ZM26.2374 14.2374C26.9209 13.554 26.9209 12.446 26.2374 11.7626L15.1005 0.625631C14.4171 -0.057786 13.309 -0.057786 12.6256 0.625631C11.9422 1.30905 11.9422 2.41709 12.6256 3.1005L22.5251 13L12.6256 22.8995C11.9422 23.5829 11.9422 24.691 12.6256 25.3744C13.309 26.0578 14.4171 26.0578 15.1005 25.3744L26.2374 14.2374ZM2 14.75L25 14.75V11.25L2 11.25L2 14.75Z"
     fill="#FE9000"
     id="path1"
     style="fill:#ffffff;fill-opacity:1" />
</svg>
