<?xml version="1.0" encoding="UTF-8" standalone="no"?>
<svg
   width="32"
   height="32"
   viewBox="0 0 32 32"
   fill="none"
   version="1.1"
   id="svg1"
   sodipodi:docname="icon_github.svg"
   inkscape:version="1.3.2 (091e20e, 2023-11-25, custom)"
   xmlns:inkscape="http://www.inkscape.org/namespaces/inkscape"
   xmlns:sodipodi="http://sodipodi.sourceforge.net/DTD/sodipodi-0.dtd"
   xmlns="http://www.w3.org/2000/svg"
   xmlns:svg="http://www.w3.org/2000/svg">
  <defs
     id="defs1" />
  <sodipodi:namedview
     id="namedview1"
     pagecolor="#ffffff"
     bordercolor="#000000"
     borderopacity="0.25"
     inkscape:showpageshadow="2"
     inkscape:pageopacity="0.0"
     inkscape:pagecheckerboard="0"
     inkscape:deskcolor="#d1d1d1"
     inkscape:zoom="25.919883"
     inkscape:cx="13.329535"
     inkscape:cy="17.804864"
     inkscape:window-width="2560"
     inkscape:window-height="1369"
     inkscape:window-x="-8"
     inkscape:window-y="61"
     inkscape:window-maximized="1"
     inkscape:current-layer="svg1" />
  <path
     d="m 12.333305,26.017842 c -6.66665,2 -6.66665,-3.3333 -9.33331,-4 m 18.66671,8 v -5.16 c 0.05,-0.6358 -0.0359,-1.2749 -0.252,-1.8749 -0.2161,-0.6 -0.5575,-1.1472 -1.0014,-1.6051 4.1867,-0.4666 8.5867,-2.0533 8.5867,-9.3333 -4e-4,-1.86157 -0.7164,-3.6517397 -2,-4.9999997 0.6078,-1.62866 0.5648,-3.42887 -0.12,-5.02667 0,0 -1.5733,-0.466665 -5.2133,1.97333 -3.056,-0.82823 -6.2774,-0.82823 -9.3334,0 -3.63998,-2.439995 -5.21331,-1.97333 -5.21331,-1.97333 -0.68483,1.5978 -0.72781,3.39801 -0.12,5.02667 -1.29317,1.35826 -2.00997,3.1646197 -2,5.0399997 0,7.2267 4.4,8.8133 8.58671,9.3333 -0.4387,0.4533 -0.777,0.9939 -0.993,1.5866 -0.2159,0.5927 -0.3046,1.2242 -0.2604,1.8534 v 5.16"
     stroke="#f1efed"
     stroke-width="2"
     stroke-linecap="round"
     stroke-linejoin="round"
     id="path1" />
</svg>
