<svg width="27" height="26" viewBox="0 0 27 26" fill="none" xmlns="http://www.w3.org/2000/svg">
<path d="M2 11.25C1.0335 11.25 0.25 12.0335 0.25 13C0.25 13.9665 1.0335 14.75 2 14.75L2 11.25ZM26.2374 14.2374C26.9209 13.554 26.9209 12.446 26.2374 11.7626L15.1005 0.625631C14.4171 -0.057786 13.309 -0.057786 12.6256 0.625631C11.9422 1.30905 11.9422 2.41709 12.6256 3.1005L22.5251 13L12.6256 22.8995C11.9422 23.5829 11.9422 24.691 12.6256 25.3744C13.309 26.0578 14.4171 26.0578 15.1005 25.3744L26.2374 14.2374ZM2 14.75L25 14.75V11.25L2 11.25L2 14.75Z" fill="#FE9000"/>
</svg>
