<svg width="30" height="28" viewBox="0 0 30 28" fill="none" xmlns="http://www.w3.org/2000/svg">
<path d="M20.3334 9.66666C22.4551 9.66666 24.4899 10.5095 25.9902 12.0098C27.4905 13.5101 28.3334 15.5449 28.3334 17.6667V27H23V17.6667C23 16.9594 22.7191 16.2811 22.219 15.781C21.7189 15.2809 21.0406 15 20.3334 15C19.6261 15 18.9478 15.2809 18.4477 15.781C17.9476 16.2811 17.6667 16.9594 17.6667 17.6667V27H12.3334V17.6667C12.3334 15.5449 13.1762 13.5101 14.6765 12.0098C16.1768 10.5095 18.2116 9.66666 20.3334 9.66666Z" stroke="#F1EFED" stroke-width="2" stroke-linecap="round" stroke-linejoin="round"/>
<path d="M7.00002 11H1.66669V27H7.00002V11Z" stroke="#F1EFED" stroke-width="2" stroke-linecap="round" stroke-linejoin="round"/>
<path d="M4.33335 6.99999C5.80611 6.99999 7.00002 5.80608 7.00002 4.33332C7.00002 2.86056 5.80611 1.66666 4.33335 1.66666C2.86059 1.66666 1.66669 2.86056 1.66669 4.33332C1.66669 5.80608 2.86059 6.99999 4.33335 6.99999Z" stroke="#F1EFED" stroke-width="2" stroke-linecap="round" stroke-linejoin="round"/>
</svg>
