<?xml version="1.0" encoding="UTF-8" standalone="no"?>
<svg
   viewBox="32.185856 20.47 217.51907 228.36822"
   width="2054.7534"
   height="2310.8579"
   version="1.1"
   id="svg4"
   sodipodi:docname="icon_c.svg"
   xmlns:inkscape="http://www.inkscape.org/namespaces/inkscape"
   xmlns:sodipodi="http://sodipodi.sourceforge.net/DTD/sodipodi-0.dtd"
   xmlns="http://www.w3.org/2000/svg"
   xmlns:svg="http://www.w3.org/2000/svg">
  <defs
     id="defs4" />
  <sodipodi:namedview
     id="namedview4"
     pagecolor="#ffffff"
     bordercolor="#000000"
     borderopacity="0.25"
     inkscape:showpageshadow="2"
     inkscape:pageopacity="0.0"
     inkscape:pagecheckerboard="0"
     inkscape:deskcolor="#d1d1d1" />
  <path
     d="m 249.62072,83.59857 a 21.67,21.67 0 0 0 -2.65,-10.87 20.74,20.74 0 0 0 -7.87,-7.67 q -43.42,-25.07 -86.87,-50.07 c -7.8,-4.51 -15.36,-4.35 -23.11,0.23 -11.52,6.77 -69.210004,39.86 -86.400004,49.83 -7.08,4.1 -10.52,10.38 -10.52,18.54 v 100.8 a 21.77,21.77 0 0 0 2.55,10.66 20.63,20.63 0 0 0 8,7.88 c 17.19,10 74.890004,43.05 86.410004,49.85 7.75,4.58 15.31,4.74 23.12,0.23 q 43.41,-25.08 86.87,-50.09 a 20.63,20.63 0 0 0 8,-7.88 21.77,21.77 0 0 0 2.55,-10.66 v -100.78 z"
     fill="#004482"
     id="path1" />
  <path
     d="m 249.64072,184.38857 a 21.72,21.72 0 0 1 -2.55,10.66 18.58,18.58 0 0 1 -1.45,2.24 l -104.73,-63.3 98.19,-68.93 a 20.72,20.72 0 0 1 7.86,7.67 21.57,21.57 0 0 1 2.66,10.87 c 0.02,33.6 0.02,100.79 0.02,100.79 z"
     fill="#00599c"
     id="path2" />
  <path
     d="m 246.96072,72.72857 -212.240004,122.32 a 21.75,21.75 0 0 1 -2.53,-10.65 v -100.81 c 0,-8.16 3.45,-14.44 10.52,-18.54 17.2,-9.97 74.890004,-43.06 86.420004,-49.85 7.73,-4.58 15.3,-4.74 23.1,-0.23 q 43.41,25.08 86.87,50.09 a 20.72,20.72 0 0 1 7.86,7.67 z"
     fill="#659ad2"
     id="path3" />
  <path
     d="m 145.11072,174.70857 a 39.91,39.91 0 0 1 -35,-20.63 q -0.53,-0.94 -1,-1.92 a 39.94,39.94 0 0 1 66.8,-42.77 c 0.53,0.64 1,1.31 1.53,2 0.24,0.33 0.48,0.66 0.7,1 l 35.07,-20.2 q -1.28,-2.06 -2.68,-4 c -0.49,-0.69 -1,-1.35 -1.48,-2 a 79.9,79.9 0 0 0 -134.140004,85.72 c 0.34,0.64 0.69,1.27 1,1.9 a 79.91,79.91 0 0 0 136.860004,3.62 l -34.29,-20.73 a 39.88,39.88 0 0 1 -33.37,18.01 z"
     fill="#ffffff"
     id="path4" />
</svg>
