<?xml version="1.0" encoding="UTF-8" standalone="no"?>
<svg
   height="1605.931"
   viewBox="-0.557 117.607 598.02508 272.12887"
   width="2267.0366"
   version="1.1"
   id="svg2"
   sodipodi:docname="icon_docker.svg"
   xmlns:inkscape="http://www.inkscape.org/namespaces/inkscape"
   xmlns:sodipodi="http://sodipodi.sourceforge.net/DTD/sodipodi-0.dtd"
   xmlns="http://www.w3.org/2000/svg"
   xmlns:svg="http://www.w3.org/2000/svg">
  <defs
     id="defs2" />
  <sodipodi:namedview
     id="namedview2"
     pagecolor="#ffffff"
     bordercolor="#000000"
     borderopacity="0.25"
     inkscape:showpageshadow="2"
     inkscape:pageopacity="0.0"
     inkscape:pagecheckerboard="0"
     inkscape:deskcolor="#d1d1d1" />
  <g
     fill="#0091e2"
     id="g2"
     transform="translate(-0.5178867,-117.92393)">
    <path
       d="m 592.162,277.804 c -1.664,-1.37 -16.642,-12.597 -48.815,-12.597 -8.321,0 -16.92,0.822 -25.24,2.191 -6.102,-41.898 -41.327,-62.162 -42.714,-63.257 l -8.598,-4.93 -5.547,7.942 c -6.934,10.68 -12.204,22.729 -15.255,35.052 -5.824,23.824 -2.219,46.279 9.985,65.447 -14.7,8.216 -38.553,10.133 -43.545,10.406 H 18.58 c -10.262,0 -18.583,8.216 -18.583,18.348 -0.554,33.956 5.27,67.912 17.197,99.951 13.59,35.052 33.838,61.067 59.91,76.95 29.4,17.799 77.383,27.931 131.468,27.931 24.408,0 48.815,-2.19 72.946,-6.572 33.56,-6.025 65.734,-17.526 95.412,-34.23 a 260.485,260.485 0 0 0 64.902,-52.577 c 31.342,-34.778 49.925,-73.663 63.515,-108.167 h 5.547 c 34.116,0 55.195,-13.418 66.844,-24.92 7.766,-7.12 13.59,-15.882 17.751,-25.74 l 2.497,-7.12 z"
       id="path1" />
    <path
       d="m 55.193,306.83 h 52.698 c 2.497,0 4.716,-1.916 4.716,-4.654 v -46.553 c 0,-2.465 -1.942,-4.655 -4.716,-4.655 H 55.193 c -2.496,0 -4.715,1.916 -4.715,4.655 v 46.553 c 0.277,2.738 2.219,4.655 4.715,4.655 z m 72.668,0 h 52.699 c 2.496,0 4.715,-1.916 4.715,-4.654 v -46.553 c 0,-2.465 -1.942,-4.655 -4.715,-4.655 h -52.7 c -2.496,0 -4.715,1.916 -4.715,4.655 v 46.553 c 0.278,2.738 2.22,4.655 4.715,4.655 m 74.055,0 h 52.699 c 2.496,0 4.715,-1.917 4.715,-4.655 v -46.553 c 0,-2.465 -1.942,-4.655 -4.715,-4.655 h -52.699 c -2.496,0 -4.715,1.916 -4.715,4.655 v 46.553 c 0,2.738 1.942,4.655 4.715,4.655 z m 72.946,0 h 52.699 c 2.496,0 4.715,-1.917 4.715,-4.655 v -46.553 c 0,-2.465 -1.942,-4.655 -4.715,-4.655 h -52.699 c -2.496,0 -4.715,1.916 -4.715,4.655 v 46.553 c 0,2.738 2.219,4.655 4.715,4.655 z m -147,-66.543 h 52.698 c 2.496,0 4.715,-2.19 4.715,-4.655 V 189.08 c 0,-2.465 -1.942,-4.656 -4.715,-4.656 H 127.86 c -2.496,0 -4.715,1.917 -4.715,4.656 v 46.553 c 0.278,2.464 2.22,4.655 4.715,4.655 m 74.055,0 h 52.699 c 2.496,0 4.715,-2.19 4.715,-4.655 V 189.08 c 0,-2.465 -1.942,-4.656 -4.715,-4.656 h -52.699 c -2.496,0 -4.715,1.917 -4.715,4.656 v 46.553 c 0,2.464 1.942,4.655 4.715,4.655 m 72.946,0 h 52.699 c 2.496,0 4.715,-2.19 4.715,-4.655 V 189.08 c 0,-2.465 -2.22,-4.656 -4.715,-4.656 h -52.699 c -2.496,0 -4.715,1.917 -4.715,4.656 v 46.553 c 0,2.464 2.219,4.655 4.715,4.655 m 0,-66.817 h 52.699 c 2.496,0 4.715,-1.917 4.715,-4.655 v -46.553 c 0,-2.465 -2.22,-4.656 -4.715,-4.656 h -52.699 c -2.496,0 -4.715,1.917 -4.715,4.656 v 46.553 c 0,2.464 2.219,4.655 4.715,4.655 m 73.5,133.36 h 52.699 c 2.496,0 4.715,-1.917 4.715,-4.655 v -46.553 c 0,-2.465 -1.941,-4.655 -4.715,-4.655 h -52.698 c -2.497,0 -4.716,1.916 -4.716,4.655 v 46.553 c 0.278,2.738 2.22,4.655 4.716,4.655"
       id="path2" />
  </g>
</svg>
